<?xml version="1.0" standalone="no"?>
<!DOCTYPE svg PUBLIC "-//W3C//DTD SVG 20010904//EN"
 "http://www.w3.org/TR/2001/REC-SVG-20010904/DTD/svg10.dtd">
<svg version="1.0" xmlns="http://www.w3.org/2000/svg"
 width="300.000000pt" height="300.000000pt" viewBox="0 0 300.000000 300.000000"
 preserveAspectRatio="xMidYMid meet">
<metadata>
Created by potrace 1.10, written by Peter Selinger 2001-2011
</metadata>
<g transform="translate(0.000000,300.000000) scale(0.100000,-0.100000)"
fill="#000000" stroke="none">
<path d="M1350 2475 c-105 -20 -154 -34 -241 -70 -289 -121 -505 -387 -575
-709 -20 -88 -22 -291 -5 -371 84 -401 352 -680 751 -786 127 -33 328 -32 463
4 327 87 593 338 695 657 35 111 46 181 45 305 -1 465 -327 863 -788 961 -103
22 -257 26 -345 9z m375 -55 c354 -94 604 -346 697 -701 17 -67 22 -111 21
-219 0 -151 -24 -267 -80 -391 -94 -207 -285 -394 -489 -479 -215 -89 -433
-101 -654 -34 -317 97 -555 350 -642 685 -30 117 -30 307 0 431 97 393 396
665 807 732 66 10 261 -3 340 -24z"/>
<path d="M1435 2400 c-313 -44 -574 -231 -716 -512 -108 -215 -129 -470 -57
-700 16 -54 25 -68 40 -68 13 0 18 5 15 14 -131 342 -52 719 205 976 120 120
281 208 441 241 516 106 988 -282 987 -813 -1 -529 -459 -955 -966 -898 -186
20 -339 91 -477 221 -62 57 -78 68 -83 54 -9 -24 72 -104 177 -174 153 -103
322 -148 517 -138 286 14 542 164 709 414 107 162 156 322 155 518 0 188 -54
367 -153 511 -77 112 -224 232 -356 290 -119 53 -314 81 -438 64z"/>
<path d="M1344 2316 c-39 -7 -84 -21 -100 -30 -16 -10 -20 -15 -10 -11 73 22
210 37 301 32 249 -15 469 -133 616 -331 61 -82 104 -123 78 -74 -93 176 -288
333 -494 398 -89 28 -285 36 -391 16z"/>
<path d="M2143 1845 c-71 -31 -65 -92 13 -125 43 -19 59 -49 34 -65 -16 -10
-48 4 -55 24 -7 22 -40 18 -50 -6 -18 -49 89 -72 152 -33 64 39 51 95 -26 119
-50 14 -68 35 -51 56 18 22 45 18 63 -7 15 -22 16 -22 33 -5 44 42 -42 74
-113 42z"/>
<path d="M2007 1780 c-6 -69 -34 -125 -63 -125 -10 0 -18 5 -17 12 2 7 6 37 9
67 8 64 -4 86 -45 86 l-26 0 -2 -100 c-3 -108 6 -130 51 -130 25 0 45 19 69
65 16 30 16 30 17 5 1 -42 16 -55 60 -51 12 1 16 21 18 106 3 105 2 105 -23
115 -40 15 -42 14 -48 -50z"/>
<path d="M1618 1731 c5 -72 -5 -168 -16 -156 -4 3 -5 51 -4 106 l4 99 -28 0
c-20 0 -40 -13 -72 -47 -25 -27 -42 -39 -38 -29 11 31 -3 56 -31 56 -16 0 -39
-14 -64 -39 -28 -27 -39 -34 -39 -22 0 23 -20 41 -46 41 -21 0 -22 -6 -29
-100 -8 -111 0 -133 43 -128 23 3 25 7 27 59 1 57 27 118 54 127 12 4 13 -7 8
-56 -9 -83 3 -112 45 -112 l33 0 0 53 c0 54 29 127 55 135 10 4 12 -8 7 -56
-9 -84 3 -112 46 -112 31 0 33 -2 33 -36 0 -42 18 -57 58 -49 l28 5 -7 -124
c-9 -165 5 -196 91 -196 91 0 162 88 140 175 -15 61 -79 84 -129 45 -14 -11
-27 -20 -29 -20 -1 0 -3 23 -3 52 0 50 -1 51 -35 63 l-35 12 -2 69 c-2 66 -2
68 13 47 29 -41 111 -20 132 34 21 55 23 73 12 112 -18 66 -81 83 -132 34 -26
-25 -28 -26 -28 -6 0 13 -8 23 -22 27 -44 11 -46 9 -40 -63z m152 20 c16 -31
12 -83 -10 -118 -34 -57 -70 -37 -70 39 0 39 5 54 25 73 29 30 41 31 55 6z
m-339 -48 c0 -15 2 -15 9 2 9 20 9 20 9 0 0 -11 -6 -31 -14 -45 -13 -22 -14
-23 -15 -5 0 11 -3 30 -6 43 -4 13 -2 22 5 22 6 0 11 -8 12 -17z m-127 -41
c-5 -24 -9 -28 -19 -19 -10 9 -9 16 3 35 19 29 24 24 16 -16z m339 -74 c-3
-16 -10 -28 -15 -28 -6 0 -8 10 -4 23 3 12 6 29 6 37 0 9 3 10 9 5 5 -6 7 -22
4 -37z m97 -252 c0 -14 -5 -28 -11 -31 -6 -4 -14 -17 -19 -29 -8 -20 -9 -19
-9 6 -1 30 18 78 31 78 4 0 8 -11 8 -24z m104 -2 c20 -52 -14 -144 -54 -144
-44 0 -46 94 -4 141 21 23 50 25 58 3z"/>
<path d="M815 1767 c-47 -26 -85 -92 -85 -148 0 -50 38 -118 80 -141 65 -36
147 -11 172 52 10 25 10 25 18 3 5 -12 20 -29 35 -39 35 -23 76 -5 100 44 10
20 19 33 20 27 2 -5 6 -23 9 -38 6 -24 11 -28 37 -25 l30 3 3 100 c1 55 -2
106 -7 113 -5 6 -22 12 -37 12 -24 0 -27 -3 -22 -22 5 -22 4 -22 -15 -5 -49
43 -146 -6 -159 -81 -11 -62 -75 -111 -128 -98 -50 12 -72 114 -37 173 27 43
59 52 83 23 10 -12 18 -28 18 -36 0 -17 14 -18 41 -4 38 21 18 81 -32 99 -47
16 -79 13 -124 -12z m329 -83 c9 -3 16 -16 16 -28 -1 -31 -37 -105 -55 -112
-47 -18 -63 78 -20 121 25 26 33 29 59 19z m62 -132 c-13 -12 -15 7 -8 59 l7
54 3 -54 c2 -29 1 -56 -2 -59z"/>
<path d="M1373 1349 c-1 -45 -3 -83 -5 -84 -2 -2 -24 -6 -50 -10 l-48 -7 0 71
c0 74 -11 91 -57 91 -16 0 -18 -8 -15 -81 3 -78 3 -81 -17 -74 -26 8 -29 -16
-5 -36 12 -10 14 -23 9 -56 -9 -58 7 -85 48 -81 l31 3 -3 63 c-3 67 -3 66 62
76 l37 5 0 -53 c0 -58 15 -80 50 -74 20 3 22 10 25 103 2 66 -1 102 -8 107
-16 10 -3 20 17 12 9 -3 16 -12 16 -20 0 -8 5 -14 10 -14 6 0 10 -4 10 -10 0
-5 -6 -10 -14 -10 -17 0 -29 -91 -16 -125 20 -54 88 -35 118 33 l16 37 6 -40
c5 -38 7 -40 38 -40 l33 0 1 101 c1 55 -2 106 -6 112 -4 7 -20 12 -37 12 -28
0 -29 -2 -29 -45 0 -53 -25 -122 -50 -135 -27 -14 -30 -3 -24 71 8 78 -4 104
-41 95 -20 -5 -23 -1 -29 33 -6 38 -20 51 -55 51 -14 0 -17 -12 -18 -81z m47
-134 c0 -66 -16 -73 -24 -10 -3 31 -3 61 0 67 11 17 24 -14 24 -57z m-170 21
c0 -8 -4 -17 -8 -20 -13 -8 -35 11 -28 23 10 16 36 14 36 -3z m233 -6 c3 -11
1 -23 -5 -26 -5 -3 -7 -12 -4 -20 3 -8 1 -14 -3 -14 -5 0 -8 18 -8 40 2 43 11
52 20 20z"/>
<path d="M705 1270 c12 -60 60 -174 98 -231 20 -31 67 -86 104 -123 175 -174
382 -255 623 -243 89 4 238 32 227 43 -2 2 -41 -3 -88 -11 -288 -51 -557 34
-752 238 -75 78 -129 162 -183 284 -23 51 -33 66 -29 43z"/>
</g>
</svg>
